<svg xmlns="http://www.w3.org/2000/svg" viewBox="0 0 320 200" role="img" aria-label="Карта України з областями">
  <!-- Stylised, deliberately simplified Ukraine silhouette used ONLY as an
       illustrative graphic on the info pages. It is not a data layer, carries
       no geographic meaning and is never used for coordinates. -->
  <path fill="#F0EDE6" stroke="#D9D2C4" stroke-width="1.6" stroke-linejoin="round" d="
    M4 96 L14 78 L23 49 L31 24 L65 17 L101 24 L132 24 L147 14 L191 24 L226 52
    L253 106 L274 106 L252 129 L226 148 L179 148 L176 168 L165 176 L147 153
    L162 148 L132 167 L11 106 L9 92 Z"/>
  <!-- Crimea -->
  <path fill="#F0EDE6" stroke="#D9D2C4" stroke-width="1.6" stroke-linejoin="round" d="M170 176 L196 172 L214 182 L200 194 L176 190 Z"/>
  <!-- accent regions -->
  <g fill="#F6E2A8">
    <path d="M31 24 L65 17 L62 44 L26 48 Z"/>
    <path d="M26 68 L74 64 L70 96 L24 98 Z"/>
    <path d="M126 60 L176 58 L173 88 L123 88 Z"/>
  </g>
  <g fill="#F3C4BE">
    <path d="M176 96 L246 96 L252 129 L226 148 L179 148 Z"/>
    <path d="M74 116 L140 114 L137 146 L72 146 Z"/>
  </g>
  <circle cx="132" cy="62" r="4.5" fill="#EF3F36"/>
  <circle cx="132" cy="62" r="11" fill="#EF3F36" opacity=".15"/>
  <circle cx="132" cy="62" r="19" fill="none" stroke="#EF3F36" stroke-opacity=".38" stroke-width="1.4"/>
</svg>